<?xml version="1.0" standalone="no"?>
<!DOCTYPE svg PUBLIC "-//W3C//DTD SVG 20010904//EN"
 "http://www.w3.org/TR/2001/REC-SVG-20010904/DTD/svg10.dtd">
<svg version="1.0" xmlns="http://www.w3.org/2000/svg"
 width="1096.000000pt" height="246.000000pt" viewBox="0 0 1096.000000 246.000000"
 preserveAspectRatio="xMidYMid meet">
<metadata>
Created by potrace 1.16, written by Peter Selinger 2001-2019
</metadata>
<g transform="translate(0.000000,246.000000) scale(0.100000,-0.100000)"
fill="#000000" stroke="none">
<path d="M2926 2363 c-4 -32 -20 -139 -36 -238 -16 -99 -32 -204 -35 -232 -6
-47 -9 -53 -31 -53 -21 0 -24 -5 -24 -34 l0 -33 -77 -7 c-76 -7 -160 -41 -201
-82 -7 -8 -17 -14 -22 -14 -14 0 -75 -44 -78 -55 -1 -6 28 -12 65 -15 l68 -5
3 -138 c3 -125 1 -138 -15 -144 -10 -4 -20 -9 -23 -13 -6 -8 -84 -58 -184
-118 -44 -26 -81 -53 -84 -60 -3 -9 19 -12 85 -12 48 0 93 -4 99 -8 7 -4 11
-71 13 -183 l2 -176 -78 -47 c-89 -54 -208 -127 -276 -170 -26 -17 -47 -33
-47 -38 0 -4 55 -9 121 -10 103 -3 124 -6 133 -20 8 -13 8 -23 -1 -36 -7 -12
-8 -24 -2 -33 5 -8 9 -51 9 -96 l0 -83 -33 0 c-40 0 -57 -27 -57 -89 0 -44 15
-61 59 -64 25 -2 31 -6 31 -24 0 -22 -3 -23 -111 -23 -85 0 -114 3 -125 15
-21 21 -8 38 18 24 12 -7 23 -7 27 -2 3 5 14 12 24 16 9 4 22 19 28 34 15 40
-24 113 -61 113 -40 0 -61 -21 -67 -68 -6 -42 -21 -53 -41 -29 -6 7 -12 92
-14 203 -2 143 -6 195 -17 207 -7 9 -11 27 -8 38 4 13 -4 40 -19 68 -13 25
-24 58 -24 73 0 20 -4 26 -15 22 -8 -4 -15 -18 -15 -33 0 -14 -9 -44 -21 -65
-14 -26 -18 -47 -14 -67 4 -18 3 -29 -4 -29 -6 0 -11 -13 -11 -30 0 -16 -4
-30 -10 -30 -6 0 -9 -58 -8 -150 2 -106 -1 -153 -10 -162 -6 -6 -14 -9 -17 -6
-3 2 -6 52 -6 111 -1 70 -6 115 -15 133 -9 18 -11 31 -5 37 6 6 3 19 -9 36
-22 30 -39 139 -23 149 6 4 14 22 18 39 5 27 4 33 -10 33 -15 0 -17 10 -14 82
l4 83 -109 -2 -109 -1 5 133 c5 136 2 158 -23 153 -18 -4 -26 81 -9 92 16 10
-4 177 -31 266 -22 73 -45 112 -90 155 -25 23 -27 33 -27 92 0 37 -4 73 -10
80 -6 6 -13 30 -17 52 -4 22 -10 44 -13 49 -8 14 -22 -17 -22 -52 0 -18 -7
-40 -15 -48 -14 -15 -19 -45 -15 -109 1 -22 -9 -41 -35 -70 -86 -96 -122 -228
-110 -412 6 -96 6 -101 -12 -97 -13 4 -23 -3 -33 -20 -12 -23 -11 -28 3 -44
14 -15 17 -39 17 -120 l0 -100 -111 1 c-61 1 -113 -2 -116 -7 -3 -5 -5 -41 -4
-81 2 -57 -1 -74 -13 -78 -14 -5 -14 -10 -1 -41 20 -46 19 -117 -1 -164 -11
-26 -18 -81 -21 -180 -3 -78 -9 -142 -12 -142 -3 0 -14 7 -23 14 -15 11 -17
31 -17 148 1 75 -1 140 -4 145 -3 5 -9 38 -12 73 -4 36 -15 79 -25 95 -10 17
-21 47 -24 69 -7 35 -8 37 -21 20 -8 -11 -15 -30 -15 -44 0 -14 -7 -36 -15
-50 -8 -14 -14 -42 -15 -62 0 -20 -4 -39 -9 -42 -4 -3 -6 -17 -3 -31 2 -14 0
-25 -4 -25 -5 0 -8 -61 -7 -135 l2 -134 -29 -21 c-32 -23 -31 -45 1 -37 34 9
20 -21 -18 -40 -30 -14 -38 -24 -40 -47 -1 -16 -4 -35 -7 -43 -5 -11 519 -13
3210 -13 l3214 0 -16 25 c-20 31 -13 55 15 48 14 -4 21 -15 24 -42 4 -35 4
-35 5 7 2 51 22 48 22 -4 l0 -34 1578 1 c867 1 1567 4 1555 6 -16 3 -23 11
-23 27 0 13 -3 38 -6 55 l-6 31 65 0 c49 0 65 3 61 12 -7 20 -77 63 -102 63
l-23 1 1 277 c0 152 3 284 6 292 5 13 44 15 298 13 l291 -3 3 -160 c2 -154 2
-159 -15 -135 -9 14 -23 31 -29 37 -15 16 -100 17 -109 2 -4 -6 -14 -8 -22 -4
-25 9 -61 -21 -68 -57 -4 -18 -13 -40 -21 -48 -8 -10 -14 -47 -16 -95 -3 -72
-5 -80 -23 -81 -58 -2 -65 -6 -80 -34 -36 -71 -4 -158 60 -162 17 -1 33 -7 37
-13 5 -7 -36 -12 -125 -15 -113 -5 -102 -6 78 -6 116 0 184 1 153 3 -32 2 -58
8 -58 14 0 6 26 9 63 7 43 -2 61 -7 59 -15 -1 -10 39 -13 180 -11 101 1 155 3
121 5 l-63 4 0 37 c0 20 -3 47 -6 59 -5 17 -2 23 9 23 17 0 67 90 67 120 0 9
-7 23 -15 30 -8 7 -15 18 -15 26 0 7 -6 19 -12 26 -35 37 -38 59 -38 237 0 99
3 186 6 195 3 9 15 16 25 16 26 0 24 30 -1 37 -24 6 -20 30 12 75 11 16 16 32
13 38 -3 5 1 10 10 10 8 0 18 7 21 15 3 8 15 17 25 20 17 6 20 14 17 48 -3 39
-5 42 -33 42 -29 1 -30 3 -29 45 0 25 4 52 8 61 4 10 1 22 -9 32 -29 29 -65
-5 -45 -43 6 -10 10 -36 10 -58 l0 -38 -110 3 c-69 2 -110 -1 -110 -7 0 -5
-16 -10 -36 -10 l-36 0 3 82 c4 86 -4 103 -36 72 -10 -11 -14 -25 -11 -38 4
-12 9 -42 11 -68 l5 -48 -50 0 -49 0 1 75 c1 42 5 78 10 81 16 10 8 71 -12 89
-19 17 -21 17 -40 0 -21 -19 -28 -79 -11 -90 6 -3 10 -39 10 -80 l0 -75 -50 0
c-50 0 -51 0 -45 27 18 101 18 121 -5 134 -19 10 -25 9 -36 -7 -8 -11 -11 -28
-7 -39 3 -11 7 -41 8 -67 1 -48 1 -48 -31 -48 -18 0 -33 5 -33 11 0 9 -31 10
-111 7 l-111 -6 4 76 c3 80 -6 97 -36 66 -10 -10 -14 -23 -10 -33 3 -9 9 -35
11 -58 5 -37 3 -43 -13 -44 -11 -1 -23 -2 -29 -4 -5 -1 -16 -3 -22 -3 -25 -3
-12 -82 13 -82 7 0 18 -9 24 -20 6 -11 17 -20 25 -20 8 0 12 -6 9 -13 -2 -7 7
-28 21 -47 30 -41 31 -56 5 -63 -25 -7 -26 -37 -1 -37 10 0 22 -7 25 -16 11
-28 7 -614 -4 -614 -6 0 -18 5 -28 11 -13 8 -27 6 -62 -13 -58 -30 -66 -63
-20 -79 39 -14 34 -34 -9 -34 -17 0 -36 -7 -41 -15 -14 -23 -22 -6 -24 51 l-1
52 47 24 c35 18 48 30 53 53 4 17 15 35 26 40 25 14 24 38 -2 66 -25 26 -43
56 -60 97 -14 34 -45 42 -117 31 -53 -9 -60 -14 -79 -59 -5 -13 -9 13 -11 75
-2 73 1 104 14 133 15 32 16 40 4 47 -11 7 -4 20 30 58 25 28 53 53 62 57 38
14 28 97 -13 110 -10 4 -19 10 -19 15 0 5 -8 11 -17 14 -10 4 -36 22 -58 41
-58 50 -64 56 -120 99 -27 22 -55 45 -62 51 -27 23 -40 32 -66 49 -15 10 -27
24 -27 30 0 23 65 76 93 76 42 0 45 26 6 60 -18 17 -35 30 -38 30 -4 0 -17 10
-31 23 -14 12 -45 36 -70 52 -25 17 -51 36 -58 43 -7 6 -31 12 -52 12 -29 0
-42 5 -50 20 -6 11 -20 20 -31 20 -12 0 -23 8 -26 20 -3 11 -11 20 -18 20 -15
0 -19 18 -41 195 -19 157 -38 191 -49 88 -13 -129 -44 -277 -60 -286 -8 -4
-15 -15 -15 -22 0 -9 -10 -15 -26 -15 -17 0 -28 -6 -31 -20 -4 -16 -14 -20
-44 -20 -33 0 -57 -13 -159 -88 -65 -48 -122 -93 -125 -100 -8 -21 4 -32 36
-32 20 0 38 -10 59 -32 37 -41 37 -53 3 -75 -16 -10 -30 -20 -33 -23 -3 -3
-30 -25 -60 -50 -30 -25 -57 -47 -60 -50 -3 -3 -36 -30 -75 -60 -38 -30 -77
-61 -86 -69 -9 -9 -26 -23 -38 -31 -38 -26 -27 -61 44 -136 47 -49 61 -70 50
-72 -16 -4 -13 -34 6 -57 4 -6 8 -74 9 -150 1 -170 2 -164 -11 -142 -11 19
-51 22 -95 7 -22 -8 -32 -21 -42 -50 -6 -22 -12 -47 -12 -55 0 -20 -12 -19
-40 5 -13 11 -27 20 -32 20 -4 0 -8 17 -8 38 l0 37 45 1 c25 0 48 4 51 7 7 6
-75 86 -88 87 -5 0 -8 65 -8 143 l0 144 47 2 c26 1 49 4 52 7 3 2 -18 27 -47
55 l-52 50 0 284 0 285 -75 0 -75 0 0 105 0 105 40 0 c22 0 40 3 40 7 0 3 -17
21 -37 40 -27 23 -48 33 -71 33 l-34 0 4 58 3 57 -382 3 -383 2 0 -60 0 -60
-35 0 c-25 0 -43 -8 -65 -30 -39 -38 -38 -50 5 -50 l35 0 0 -105 0 -105 -72 0
-73 0 3 -291 c2 -160 0 -289 -5 -286 -10 6 -110 -89 -102 -97 3 -3 27 -7 55
-8 l49 -3 3 -136 3 -136 -28 -18 c-40 -27 -87 -75 -79 -82 4 -4 26 -8 49 -9
59 -3 57 -2 57 -18 0 -9 -17 -16 -47 -21 -27 -4 -55 -13 -64 -21 -14 -13 -18
-11 -34 13 -10 15 -25 34 -33 42 -10 10 -13 39 -12 105 1 50 1 139 1 198 -1
103 -2 107 -23 110 -22 3 -23 8 -23 78 l0 75 48 3 c46 3 47 4 47 35 0 18 -17
63 -38 102 -32 58 -44 71 -68 75 -28 5 -29 7 -32 73 l-3 67 39 0 c55 0 58 18
16 102 -43 84 -58 102 -84 95 -18 -5 -20 0 -20 49 l0 54 34 0 c41 0 48 14 29
59 -23 58 -61 101 -89 101 -23 0 -25 3 -22 43 2 35 7 43 26 45 28 4 29 30 2
82 -17 33 -26 40 -50 40 -27 0 -30 3 -30 30 0 23 5 30 19 30 30 0 32 12 9 57
-13 26 -30 44 -45 47 -12 4 -23 11 -23 16 0 6 -14 10 -30 10 -27 0 -33 6 -50
45 -11 25 -23 45 -27 45 -4 0 -16 -20 -26 -45 -16 -39 -23 -45 -48 -45 -16 0
-29 -4 -29 -9 0 -5 -13 -14 -29 -19 -48 -17 -82 -102 -41 -102 16 0 20 -7 20
-30 0 -25 -4 -30 -24 -30 -18 0 -31 -11 -50 -44 -33 -57 -33 -76 -1 -76 18 0
26 -7 31 -24 10 -41 1 -60 -31 -66 -23 -4 -36 -16 -57 -55 -15 -28 -28 -62
-28 -77 0 -24 4 -28 30 -28 30 0 30 -1 30 -55 0 -45 -3 -53 -15 -48 -30 11
-115 -118 -115 -174 0 -21 5 -23 45 -23 l46 0 -3 -67 -3 -68 -33 -3 c-27 -3
-36 -10 -48 -38 -14 -33 -34 -46 -34 -23 0 7 -22 35 -49 63 -55 56 -81 85
-143 158 -23 27 -59 68 -80 91 -55 61 -68 76 -68 82 0 3 -11 16 -23 28 -13 12
-28 29 -33 38 -8 15 -73 93 -116 140 -10 10 -18 23 -18 28 0 5 -7 11 -15 15
-8 3 -15 12 -15 21 0 8 -4 15 -8 15 -4 0 -15 12 -24 28 -10 15 -32 43 -50 63
-53 58 -58 73 -58 165 0 78 -2 86 -20 91 -21 6 -23 11 -49 131 -15 67 -18 72
-34 60 -10 -8 -19 -27 -21 -43 -2 -17 -5 -30 -6 -30 -1 0 -3 -19 -5 -42 -4
-51 -10 -62 -41 -73 -23 -9 -24 -14 -24 -93 0 -76 -14 -137 -32 -137 -5 0 -8
-5 -8 -10 0 -6 -10 -21 -21 -33 -12 -12 -40 -47 -63 -77 -22 -30 -50 -65 -61
-77 -34 -37 -45 -52 -45 -62 0 -5 -3 -11 -8 -13 -4 -2 -28 -28 -52 -58 -25
-30 -58 -69 -75 -87 -16 -17 -41 -46 -55 -63 -14 -17 -42 -49 -62 -71 -21 -23
-38 -44 -38 -48 0 -4 -39 -47 -86 -96 -47 -50 -89 -97 -94 -105 -7 -12 -16 -7
-49 27 -26 28 -45 41 -55 37 -25 -10 -46 21 -53 76 -7 62 -25 61 -35 -3 -7
-52 -24 -76 -49 -70 -19 5 -159 -129 -159 -153 0 -8 10 -18 23 -23 13 -5 35
-25 50 -45 l28 -35 -43 -38 c-127 -114 -158 -147 -158 -169 0 -21 5 -24 35
-24 42 0 45 -13 8 -37 -16 -10 -42 -31 -60 -48 -48 -45 -72 -65 -79 -65 -3 0
-12 -6 -19 -14 -8 -7 -41 -16 -73 -20 -63 -7 -75 -15 -85 -56 -4 -14 -18 -38
-31 -55 l-25 -30 -1 61 c0 33 5 65 11 71 8 8 7 17 -3 32 -9 16 -10 26 -2 39 9
14 30 17 133 20 127 3 144 10 90 40 -17 9 -40 25 -51 35 -12 9 -27 17 -34 17
-7 0 -14 4 -16 8 -1 5 -39 30 -83 56 -109 64 -119 70 -125 77 -3 3 -15 11 -28
18 -23 12 -23 13 -20 194 l3 182 90 3 c49 2 94 7 99 12 5 5 -6 16 -25 26 -19
9 -36 20 -39 24 -3 3 -45 30 -95 60 -49 29 -104 64 -122 78 l-32 24 3 122 c1
67 6 128 10 134 4 7 33 12 72 12 45 0 64 4 64 13 -1 10 -103 76 -203 129 -18
10 -65 20 -104 24 -72 7 -72 7 -75 38 -2 23 -9 32 -25 34 -18 3 -24 14 -33 57
-6 30 -9 59 -6 64 4 5 1 13 -4 16 -6 4 -10 19 -9 33 2 15 1 32 -3 37 -3 6 -16
92 -29 193 -25 191 -41 229 -53 125z m2132 -754 c-10 -22 -17 -43 -15 -46 3
-2 -3 -13 -14 -24 -10 -10 -19 -28 -19 -39 0 -11 -4 -20 -9 -20 -8 0 -23 -41
-20 -56 0 -4 -3 -10 -8 -13 -12 -9 -104 -194 -103 -208 0 -7 -3 -13 -8 -13 -4
0 -13 -15 -21 -32 -8 -18 -17 -35 -21 -38 -4 -3 -21 -34 -39 -70 -18 -36 -39
-72 -45 -80 -7 -8 -29 -45 -50 -82 -20 -38 -41 -68 -46 -68 -6 0 -10 -7 -10
-15 0 -8 -4 -15 -10 -15 -5 0 -10 -9 -10 -20 0 -11 -4 -20 -10 -20 -5 0 -10
-7 -10 -15 0 -8 -4 -15 -8 -15 -4 0 -16 -14 -25 -30 -23 -38 -34 -38 -75 1
-35 33 -36 58 -2 88 24 22 110 139 110 150 0 5 4 11 8 13 14 6 82 100 82 114
0 8 5 14 10 14 6 0 10 6 10 14 0 8 4 16 8 18 10 3 102 133 102 143 0 3 5 11
10 18 33 39 70 91 70 97 0 7 57 99 100 160 12 17 45 75 62 108 20 40 27 23 6
-19z m312 -13 c0 -5 18 -35 40 -67 22 -32 40 -62 40 -65 0 -4 17 -32 39 -63
21 -31 45 -70 54 -86 8 -17 29 -46 46 -65 17 -19 37 -49 46 -66 8 -17 21 -37
30 -44 8 -7 15 -17 15 -22 0 -5 9 -19 21 -31 12 -12 26 -34 31 -49 6 -16 14
-28 19 -28 5 0 9 -7 9 -15 0 -8 4 -15 9 -15 5 0 28 -29 52 -65 24 -36 47 -65
52 -65 4 0 7 -5 7 -10 0 -11 10 -24 43 -61 9 -10 17 -23 17 -29 0 -5 5 -10 10
-10 6 0 10 -7 10 -15 0 -8 4 -15 9 -15 4 0 20 -17 35 -38 22 -32 26 -49 26
-109 0 -50 -4 -74 -15 -83 -12 -10 -15 -10 -15 4 0 9 -4 16 -10 16 -5 0 -10 4
-10 9 0 5 -9 20 -20 33 -11 12 -33 39 -50 58 -16 19 -30 41 -30 48 0 6 -4 12
-10 12 -5 0 -10 4 -10 10 0 8 -45 74 -80 117 -6 7 -10 16 -10 21 0 5 -7 15
-15 22 -8 7 -21 24 -28 39 -40 76 -81 146 -89 149 -4 2 -6 8 -2 13 3 5 -2 12
-10 15 -9 3 -16 15 -16 25 0 10 -9 28 -19 38 -11 11 -17 21 -15 24 3 2 -13 33
-34 68 -22 35 -45 81 -53 102 -7 20 -17 37 -21 37 -4 0 -8 7 -8 15 0 17 -51
118 -62 123 -5 2 -8 14 -8 27 0 13 -6 30 -14 37 -7 8 -17 28 -21 46 -3 17 -11
34 -16 37 -5 4 -9 12 -9 18 0 13 39 -33 40 -47z m-413 -40 c-17 -30 -40 -65
-50 -78 -22 -30 -77 -117 -77 -123 0 -3 -9 -14 -20 -25 -11 -11 -20 -27 -20
-35 0 -8 -4 -15 -10 -15 -5 0 -10 -6 -10 -12 0 -11 -38 -65 -80 -115 -5 -7
-10 -17 -10 -23 0 -5 -4 -10 -10 -10 -5 0 -10 -7 -10 -15 0 -8 -8 -19 -18 -24
-10 -5 -27 -28 -38 -50 -10 -23 -22 -41 -26 -41 -5 0 -8 -7 -8 -15 0 -8 -4
-15 -9 -15 -5 0 -18 -15 -29 -33 -20 -35 -44 -66 -74 -99 -10 -10 -18 -22 -18
-28 0 -5 -4 -10 -10 -10 -5 0 -10 -7 -10 -15 0 -21 -7 -19 -35 11 -14 15 -25
23 -25 19 0 -5 -3 -6 -6 -2 -10 10 59 87 79 87 19 0 22 22 7 50 -8 16 -4 26
22 53 18 19 49 53 68 76 19 24 49 58 65 76 71 78 95 107 95 116 0 5 7 9 15 9
8 0 15 4 15 10 0 9 18 35 50 69 8 9 27 32 42 51 14 19 42 53 62 75 20 22 36
46 36 53 0 7 4 11 8 8 5 -3 15 7 23 22 12 22 37 50 46 52 1 0 -12 -24 -30 -54z
m539 -35 c17 -20 37 -46 46 -59 8 -12 34 -42 57 -67 22 -24 41 -48 41 -54 0
-5 11 -18 25 -29 14 -11 25 -23 25 -26 0 -4 11 -17 25 -30 14 -13 25 -28 25
-34 0 -6 8 -17 18 -24 9 -7 51 -51 92 -98 41 -47 78 -86 83 -88 4 -2 7 -10 7
-17 0 -8 9 -16 19 -20 23 -7 35 -35 21 -49 -5 -5 -10 -25 -10 -43 0 -33 0 -33
50 -33 l50 0 0 -80 c0 -44 -3 -80 -8 -80 -4 0 -21 17 -37 37 -17 20 -38 45
-47 55 -10 10 -18 20 -18 23 0 6 -96 136 -123 166 -13 14 -29 39 -35 55 -7 16
-28 46 -47 67 -19 21 -35 42 -35 48 0 5 -4 9 -10 9 -5 0 -10 6 -10 13 0 7 -19
40 -43 72 -24 33 -46 67 -50 75 -12 26 -32 55 -64 94 -7 8 -13 18 -13 21 0 3
-18 33 -40 66 -22 33 -40 64 -40 68 0 5 -7 14 -15 21 -8 7 -15 17 -15 23 0 6
10 -2 23 -18 12 -16 36 -45 53 -64z m-588 -475 c2 -84 -1 -137 -8 -141 -5 -3
-10 -14 -10 -23 -1 -9 -12 -26 -26 -37 -41 -32 -179 -176 -224 -233 -44 -57
-96 -158 -112 -220 -19 -74 -23 -87 -35 -107 -12 -19 -14 -19 -27 -2 -7 10
-27 17 -45 17 -29 0 -31 2 -31 39 0 37 25 102 43 109 4 2 7 10 7 18 0 8 7 14
15 14 8 0 15 4 15 10 0 5 11 21 24 36 46 51 56 64 56 73 0 5 7 15 16 22 18 15
84 115 84 128 0 5 7 14 15 21 14 12 50 69 103 165 9 17 19 32 23 35 3 3 12 21
21 40 9 19 27 51 40 70 13 19 30 50 37 68 7 17 14 32 15 32 0 0 2 -60 4 -134z
m630 64 c17 -39 37 -70 43 -70 5 0 7 -5 3 -12 -4 -6 -1 -16 7 -22 8 -6 21 -24
29 -41 8 -16 33 -60 57 -96 24 -37 43 -70 43 -74 0 -3 11 -21 25 -39 14 -18
25 -37 25 -41 0 -5 7 -15 15 -24 9 -9 48 -60 87 -113 39 -54 75 -98 79 -98 5
0 9 -7 9 -15 0 -8 4 -15 9 -15 4 0 20 -17 34 -39 25 -37 25 -43 26 -205 0
-157 -1 -166 -19 -166 -11 0 -31 18 -49 44 l-30 43 24 22 c14 11 25 30 25 40
0 11 5 23 10 26 17 11 10 59 -15 100 -14 22 -30 50 -36 62 -7 12 -23 23 -36
25 -20 2 -29 14 -43 50 -30 80 -105 182 -218 298 -59 60 -112 110 -118 110
-21 0 -34 86 -32 202 2 65 5 118 8 118 3 0 20 -32 38 -70z m-4530 -657 l-3
-168 -38 -3 c-24 -2 -39 1 -41 10 -9 26 -16 115 -19 220 l-2 108 53 0 52 0 -2
-167z m678 50 c-8 -156 -16 -223 -27 -223 -5 0 -9 5 -9 12 0 9 -3 9 -12 0 -7
-7 -20 -12 -30 -12 -15 0 -17 16 -20 170 l-3 170 54 0 53 0 -6 -117z m2349 -8
c21 -29 24 -39 15 -50 -10 -12 -9 -16 2 -20 7 -3 14 -19 13 -35 0 -29 -30 -67
-107 -135 -65 -58 -67 -59 -83 -45 -9 7 -13 20 -10 29 2 9 -9 41 -26 71 l-30
54 30 28 c17 15 35 28 40 28 6 0 11 7 11 15 0 8 6 15 14 15 15 0 66 45 66 59
0 5 8 12 18 14 9 3 18 5 18 6 1 0 14 -15 29 -34z m21 -320 c-4 -17 -16 -42
-27 -54 -18 -19 -25 -35 -28 -63 -1 -5 -10 -8 -21 -8 -10 0 -24 -8 -30 -17
-10 -16 -10 -15 -5 3 3 13 0 28 -9 37 -8 8 -18 26 -21 40 -6 21 0 33 33 66 22
23 44 41 48 41 3 0 18 12 33 28 l26 27 3 -34 c2 -19 1 -49 -2 -66z m4194 -65
c6 -12 21 -20 36 -20 20 0 25 -4 20 -16 -3 -9 -6 -27 -6 -40 0 -23 -2 -24 -72
-24 l-73 0 0 60 0 60 42 0 c32 0 45 -5 53 -20z"/>
<path d="M237 1452 c-3 -16 -22 -45 -41 -64 -20 -20 -37 -49 -41 -70 -5 -24
-14 -38 -26 -41 -21 -6 -16 -37 5 -37 13 0 20 -55 9 -73 -4 -7 -6 -41 -5 -77
3 -68 -21 -438 -39 -600 -6 -52 -14 -135 -19 -185 -5 -50 -10 -91 -10 -92 0
-2 -11 -3 -23 -3 -50 0 -58 -141 -9 -148 16 -2 22 -10 22 -27 0 -19 -6 -24
-32 -28 -18 -2 72 -5 200 -5 l234 -2 -6 48 c-3 26 -13 148 -21 272 -8 124 -20
243 -25 265 -10 41 -37 452 -39 583 -1 56 3 74 14 78 21 9 19 34 -4 34 -14 0
-20 10 -25 40 -4 28 -17 51 -40 74 -19 18 -36 43 -38 57 -5 35 -34 36 -41 1z"/>
</g>
</svg>
